PathFileType	4	(X/Y/Z)	G:\GRF\jawan data\CompiledGRF\03. Mohit Kumar\0231~ac~Walking 07_markers.trc
DataRate	CameraRate	NumFrames	NumMarkers	Units	OrigDataRate	OrigDataStartFrame	OrigNumFrames
100.000000	100.000000	5	18	mm	100.000000	359	959
Frame#	Time	c7			r should			l should			sacrum			r asis			r bar 1			r knee 1			r bar 2			r mall			r heel			r met			l asis			l bar 1			l knee 1			l bar 2			l mall			l heel			l met			
		X1	Y1	Z1	X2	Y2	Z2	X3	Y3	Z3	X4	Y4	Z4	X5	Y5	Z5	X6	Y6	Z6	X7	Y7	Z7	X8	Y8	Z8	X9	Y9	Z9	X10	Y10	Z10	X11	Y11	Z11	X12	Y12	Z12	X13	Y13	Z13	X14	Y14	Z14	X15	Y15	Z15	X16	Y16	Z16	X17	Y17	Z17	X18	Y18	Z18	

360	3.59	-1535.441162109375	1517.531616210938	258.589111328125	-1479.655883789063	1469.686767578125	418.8915100097656	-1493.647338867188	1477.41357421875	93.67366790771484	-1644.780639648438	1060.27685546875	242.3878936767578	nan	nan	nan	-1577.396606445313	612.6806640625	424.9847412109375	-1569.63232421875	525.7003784179688	371.2041625976563	nan	nan	nan	nan	nan	nan	nan	nan	nan	-1499.129028320313	45.97236633300781	325.2367248535156	nan	nan	nan	-1365.88623046875	635.120361328125	35.59373092651367	-1325.42041015625	551.2310791015625	86.78104400634766	-1443.744750976563	293.7632141113281	39.77223968505859	-1488.775268554688	124.9095458984375	105.6692504882813	nan	nan	nan	nan	nan	nan	
361	3.6	-1525.911865234375	1516.571166992188	258.7715759277344	-1470.046997070313	1468.600952148438	419.0961303710938	-1484.1806640625	1476.089965820313	93.78030395507813	-1636.211669921875	1059.675659179688	242.9301452636719	nan	nan	nan	-1572.756469726563	612.4149169921875	425.4107666015625	-1566.52783203125	525.5398559570313	371.3059387207031	nan	nan	nan	nan	nan	nan	nan	nan	nan	-1498.702392578125	45.78032302856445	325.5906066894531	nan	nan	nan	-1358.869995117188	633.8314208984375	36.74718475341797	-1315.799926757813	551.4588012695313	87.92072296142578	-1423.361083984375	289.5232238769531	40.60064315795898	-1458.908325195313	118.0041809082031	106.2057266235352	nan	nan	nan	nan	nan	nan	
362	3.61	-1516.393188476563	1515.529907226563	258.9037780761719	-1459.064208984375	1466.99853515625	418.8179931640625	-1474.852172851563	1474.78173828125	93.87825012207031	-1627.546264648438	1058.85791015625	243.3951721191406	nan	nan	nan	-1568.273315429688	612.2093505859375	425.701904296875	-1563.138916015625	525.3578491210938	371.5187072753906	nan	nan	nan	nan	nan	nan	nan	nan	nan	-1498.840698242188	45.88148498535156	325.574462890625	nan	nan	nan	-1352.95458984375	632.344970703125	37.95803833007813	-1306.90576171875	551.1736450195313	88.93222045898438	-1402.347534179688	285.2574157714844	41.51608657836914	-1428.663452148438	112.1138229370117	106.8428421020508	nan	nan	nan	nan	nan	nan	
363	3.62	-1506.838745117188	1514.401733398438	259.0008850097656	-1447.065795898438	1464.99853515625	418.1822204589844	-1465.622802734375	1473.533203125	93.93392181396484	-1618.6748046875	1057.911254882813	243.8170776367188	nan	nan	nan	-1563.996337890625	612.0904541015625	425.7598571777344	-1559.3984375	525.00537109375	371.7568054199219	nan	nan	nan	-1643.1748046875	82.58940887451172	315.9758911132813	nan	nan	nan	-1499.12255859375	45.94795227050781	325.1640625	nan	nan	nan	-1347.469604492188	630.30615234375	39.12752914428711	-1298.35205078125	550.6260986328125	90.11236572265625	-1380.669189453125	280.9362182617188	42.29574203491211	-1398.48876953125	106.987922668457	107.6313171386719	nan	nan	nan	nan	nan	nan	
364	3.63	-1497.2763671875	1513.166625976563	259.0591125488281	-1438.514282226563	1464.034057617188	418.5105590820313	-1456.434936523438	1472.26318359375	93.92943572998047	-1609.780029296875	1056.856201171875	244.2270202636719	nan	nan	nan	-1559.815185546875	611.9884643554688	425.6414489746094	-1555.94921875	524.8544311523438	371.8389587402344	nan	nan	nan	-1643.158203125	83.19728851318359	315.6767578125	nan	nan	nan	-1499.006591796875	45.77999496459961	325.0840454101563	nan	nan	nan	-1342.501220703125	627.9808959960938	40.05313110351563	-1290.467651367188	549.953125	91.25775146484375	-1359.048217773438	277.2070617675781	43.06495666503906	-1368.821655273438	102.594970703125	108.6008758544922	nan	nan	nan	nan	nan	nan	
